<?xml version="1.0" encoding="utf-8"?>
<!-- Generator: Adobe Illustrator 19.0.0, SVG Export Plug-In . SVG Version: 6.00 Build 0)  -->
<svg version="1.1" id="Layer_1" xmlns="http://www.w3.org/2000/svg" xmlns:xlink="http://www.w3.org/1999/xlink" x="0px" y="0px"
	 viewBox="0 0 792 612" style="enable-background:new 0 0 792 612;" xml:space="preserve">
<style type="text/css">
	.st0{fill:#231F20;}
</style>
<g>
	<polygon class="st0" points="459.1,267 536.6,267 540.6,262 454.1,262 454.1,342.8 466.7,342.8 466.7,337.8 459.1,337.8 	"/>
	<polygon class="st0" points="557.4,262 553.3,267 687.6,267 687.6,337.8 496,337.8 494.7,337.8 493.4,337.8 491.4,337.8 
		490.4,337.8 489.4,337.8 479.4,337.8 475.4,342.8 489.4,342.8 490.4,342.8 490.6,342.8 491.9,342.8 692.6,342.8 692.6,262 	"/>
	<polygon class="st0" points="531.7,295.1 531.7,296.7 531.7,328.7 536.7,328.7 536.7,290.6 536.7,289 536.7,287.4 531.7,293.6 	"/>
	<path class="st0" d="M645.7,282.1v-5c-16.1,0-29.3,11.5-29.3,25.5s13.1,25.5,29.3,25.5v-5c-13.4,0-24.3-9.2-24.3-20.5
		S632.3,282.1,645.7,282.1z"/>
	<path class="st0" d="M648.8,323.2v5c16.1,0,29.3-11.5,29.3-25.5s-13.1-25.5-29.3-25.5v5c13.4,0,24.3,9.2,24.3,20.5
		S662.2,323.2,648.8,323.2z"/>
	<path class="st0" d="M606,277.1h-11.7H547v5h5.3h2v2v44.6h5v-44.6v-2h2h24h3.4c-1,0.6-1.9,1.3-2.7,2c-5.6,4.7-9.2,11.2-9.2,18.5
		c0,14.1,13.1,25.5,29.3,25.5H619v-5H606c-13.4,0-24.3-9.2-24.3-20.5c0-8.2,5.7-15.2,13.8-18.5c3.2-1.3,6.7-2,10.4-2h2H619v-5H608
		H606z"/>
	<polygon class="st0" points="490.4,317.6 491.4,316.4 493.4,313.9 493.4,317.1 493.4,318.7 493.4,320.3 493.4,334.6 529.7,289.9 
		531.7,287.4 536.7,281.2 538.7,278.8 548.2,267 552.2,262 560.8,251.4 554.4,251.4 545.8,262 541.7,267 533.2,277.6 529.7,281.9 
		498.4,320.5 498.4,314 498.4,312.4 498.4,310.8 498.4,307.6 498.4,299.6 498.4,296.4 498.4,294.8 498.4,293.2 498.4,280.5 
		493.4,280.5 493.4,299.4 493.4,301 493.4,302.6 493.4,305.8 491.4,308.3 490.4,309.6 489.4,310.8 475.7,327.9 475.7,271.4 
		470.7,271.4 470.7,337.8 470.7,342.2 474.2,337.8 489.4,318.9 	"/>
</g>
</svg>
